<svg width="14" height="18" viewBox="0 0 14 18" fill="none" xmlns="http://www.w3.org/2000/svg">
<path fill-rule="evenodd" clip-rule="evenodd" d="M13 0H1C0.734784 0 0.48043 0.105357 0.292893 0.292893C0.105357 0.48043 0 0.734784 0 1V17C0 17.2652 0.105357 17.5196 0.292893 17.7071C0.48043 17.8946 0.734784 18 1 18H13C13.2652 18 13.5196 17.8946 13.7071 17.7071C13.8946 17.5196 14 17.2652 14 17V1C14 0.734784 13.8946 0.48043 13.7071 0.292893C13.5196 0.105357 13.2652 0 13 0ZM9.795 10.519C9.61 10.901 9.422 10.921 9.504 10.519C9.715 9.48 9.572 7.248 8 7V11.75C8 12.723 7.552 13.57 6.361 13.953C5.205 14.322 3.912 13.937 3.609 13.107C3.306 12.277 3.986 11.267 5.127 10.851C5.764 10.619 6.502 10.559 7 10.75V4H8C8 6.355 12.065 5.839 9.795 10.519Z" fill="black"/>
</svg>
